<svg version="1.2" xmlns="http://www.w3.org/2000/svg" viewBox="0 0 438 437" width="438" height="437"><style>.a{fill:#3178c6}.b{fill:#fff}</style><path class="a" d="m6 56c0-27.6 22.4-50 50-50h326c27.7 0 50 22.4 50 50v326c0 27.7-22.3 50-50 50h-326c-27.6 0-50-22.3-50-50z"/><path class="a" d="m6 56c0-27.6 22.4-50 50-50h326c27.7 0 50 22.4 50 50v326c0 27.7-22.3 50-50 50h-326c-27.6 0-50-22.3-50-50z"/><path fill-rule="evenodd" class="b" d="m294.3 359.3q13.3 4.7 26.9 4.7 7.9 0 13.8-1.4 6-1.4 9.9-4 4-2.5 6-6 1.9-3.4 1.9-7.4 0-5.5-3.1-9.8-3.1-4.3-8.5-8-5.4-3.6-12.9-7-7.4-3.4-16-6.9-21.9-9.1-32.6-22.2-10.8-13.2-10.8-31.8 0-14.6 5.9-25.1 5.9-10.4 16-17.2 10.1-6.8 23.3-10 13.3-3.2 28.2-3.2 14.6 0 25.8 1.8 11.3 1.8 20.8 5.4v38.9q-4.7-3.2-10.2-5.7-5.6-2.5-11.4-4.1-5.9-1.6-11.7-2.4-5.8-0.8-11-0.8-7.2 0-13 1.4-5.9 1.3-9.9 3.8-4 2.5-6.3 5.9-2.2 3.5-2.2 7.8 0 4.7 2.5 8.4 2.5 3.7 7 7 4.6 3.3 11.1 6.5 6.5 3.2 14.7 6.6 11.2 4.7 20.1 10 9 5.2 15.3 11.9 6.4 6.6 9.8 15.1 3.4 8.6 3.4 19.9 0 15.6-5.9 26.2-6 10.6-16.1 17.2-10.2 6.6-23.7 9.4-13.4 2.9-28.4 2.9-15.4 0-29.2-2.6-13.9-2.6-24.1-7.8v-41.7q11.4 9.5 24.6 14.3zm-94.6 35.3h-42.3v-152.2h-53.2v-34.2h148.9v34.2h-53.4z"/></svg>